<svg id="Layer_1" data-name="Layer 1" xmlns="http://www.w3.org/2000/svg" viewBox="0 0 36 36">
  <defs>
    <style>
      .cls-1 {
        fill: #2f3238;
      }
    </style>
  </defs>
  <g>
    <path class="cls-1" d="M34.29,14a3,3,0,0,1-1.58.84c-.92.22-1.86.42-2.78.63L27.84,16a.53.53,0,0,0-.25.2c-.4.5-.79,1-1.2,1.49-.08.1-.29.21-.34.17a.56.56,0,0,1-.24-.39,8.28,8.28,0,0,1,0-1c-.65.09-1.25.18-1.85.25a17,17,0,0,1-3.49.13.27.27,0,0,0-.31.17,7.06,7.06,0,0,1-.57.78c-.13.15-.25.12-.36-.05l-.13-.22c-.3.29-.58.56-.88.82a5,5,0,0,1-.57.46c-.23.16-.44.07-.47-.22a1.78,1.78,0,0,1,0-.46q0-.3.12-.6c.07-.32.16-.64.25-1-.35-.05-.75-.11-1.15-.15l-2-.22a2.58,2.58,0,0,0-1.53.41c-.9.48-1.82.94-2.73,1.39-.41.2-.63.09-.78-.33A5.25,5.25,0,0,1,9,15.4a.31.31,0,0,1,.18-.15c.22-.06.44-.1.65-.14V15c-.42-.06-.83-.14-1.24-.18a4.73,4.73,0,0,0-2,.23c-.86.29-1.72.58-2.6.8a17.06,17.06,0,0,1-1.92.25c.1-.43.18-.8.28-1.17s.1-.37.45-.53c-.23-.12-.2-.29-.1-.46a2,2,0,0,0,.13-1s0,0,0,0c-.27-.16-.2-.48-.34-.7s-.09-.32,0-.39a2,2,0,0,1-.11-.44c0-.34,0-.67,0-1s.08-.34.31-.28a10.25,10.25,0,0,1,1.75.47,12,12,0,0,1,1.75,1A3.68,3.68,0,0,0,8,12c.48,0,1,0,1.44,0l0-.11A3.81,3.81,0,0,1,9,11.8a2.2,2.2,0,0,1-.28-.18c.09-.1.16-.26.27-.28a1.25,1.25,0,0,1,.71,0,4.26,4.26,0,0,0,2.52.17c1.08-.18,2.17-.33,3.25-.5l1.29-.21.19-.06-1.22-.34a.72.72,0,0,1,.36-.53,3.52,3.52,0,0,0,.61-.61c.09-.1.16-.14.28-.07l.2.07c0-.05,0-.07,0-.08-.23-.18-.22-.19,0-.41s.32-.42.49-.62A2,2,0,0,1,18,7.74c.05,0,.17,0,.29,0l-.05-.15c0-.09,0-.23,0-.26a.35.35,0,0,1,.29-.06,4.32,4.32,0,0,1,.71.46c.58.5,1.14,1,1.71,1.54l.81.74s.12,0,.18,0l2.62.14a25.37,25.37,0,0,1,4.67.73,21.4,21.4,0,0,1,3.53,1,9.86,9.86,0,0,1,1.22.7.81.81,0,0,1,.18.19.34.34,0,0,1-.11.57l-.48.24c.24.17.52-.14.74.08Z"/>
    <g>
      <path class="cls-1" d="M9.44,25.62a5.21,5.21,0,0,1-1.68.3,2.78,2.78,0,0,1-2-.73,2.9,2.9,0,0,1,2.2-4.87,3.31,3.31,0,0,1,1.37.26l-.17.57a2.9,2.9,0,0,0-1.22-.23,2,2,0,0,0-2.2,2.2A2,2,0,0,0,7.8,25.33a2.4,2.4,0,0,0,1-.14V23.55H7.63V23H9.44Z"/>
      <path class="cls-1" d="M15.2,23.06C15.2,25,14.06,26,12.66,26a2.51,2.51,0,0,1-2.47-2.78,2.61,2.61,0,0,1,2.55-2.88A2.49,2.49,0,0,1,15.2,23.06ZM11,23.15c0,1.17.63,2.22,1.75,2.22s1.76-1,1.76-2.27-.57-2.23-1.75-2.23S11,22,11,23.15Z"/>
      <path class="cls-1" d="M17.84,20.38h3V21H18.55V22.8h2.08v.58H18.55v2.48h-.71Z"/>
      <path class="cls-1" d="M22.51,20.38v5.48H21.8V20.38Z"/>
      <path class="cls-1" d="M23.65,25a2.57,2.57,0,0,0,1.27.36c.72,0,1.15-.39,1.15-.94s-.3-.8-1-1.09c-.89-.32-1.45-.78-1.45-1.55a1.58,1.58,0,0,1,1.78-1.49,2.45,2.45,0,0,1,1.21.27l-.2.58a2.11,2.11,0,0,0-1-.26c-.75,0-1,.44-1,.82s.33.76,1.09,1.05c.93.36,1.4.81,1.4,1.62s-.63,1.57-1.92,1.57a2.77,2.77,0,0,1-1.4-.35Z"/>
      <path class="cls-1" d="M28.46,20.38v2.29h2.66V20.38h.71v5.48h-.71V23.29H28.46v2.57h-.7V20.38Z"/>
    </g>
  </g>
</svg>
